<svg xmlns="http://www.w3.org/2000/svg" viewBox="0 0 500 350">
  <rect width="500" height="350" fill="white" rx="8"/>
  <rect x="20" y="20" width="460" height="310" fill="#f0f9ff" rx="6" stroke="#bae6fd"/>
  <text x="40" y="55" font-family="Arial,sans-serif" font-size="16" font-weight="bold" fill="#0369a1">Équipements de Laboratoire</text>
  <line x1="40" y1="65" x2="460" y2="65" stroke="#7dd3fc" stroke-width="2"/>
  <rect x="40" y="85" width="120" height="100" rx="8" fill="white" stroke="#38bdf8"/>
  <rect x="60" y="105" width="30" height="60" rx="4" fill="#0ea5e9"/>
  <rect x="100" y="115" width="40" height="40" rx="20" fill="#0284c7"/>
  <text x="100" y="205" text-anchor="middle" font-family="Arial,sans-serif" font-size="10" fill="#0369a1">Centrifugeuse</text>
  <rect x="190" y="85" width="120" height="100" rx="8" fill="white" stroke="#38bdf8"/>
  <rect x="220" y="100" width="60" height="70" rx="4" fill="#0ea5e9"/>
  <rect x="235" y="110" width="30" height="20" rx="2" fill="#e0f2fe"/>
  <text x="250" y="205" text-anchor="middle" font-family="Arial,sans-serif" font-size="10" fill="#0369a1">Microscope</text>
  <rect x="340" y="85" width="120" height="100" rx="8" fill="white" stroke="#38bdf8"/>
  <rect x="370" y="110" width="60" height="50" rx="4" fill="#0ea5e9"/>
  <circle cx="400" cy="135" r="10" fill="#e0f2fe"/>
  <text x="400" y="205" text-anchor="middle" font-family="Arial,sans-serif" font-size="10" fill="#0369a1">Spectrophotomètre</text>
  <rect x="40" y="230" width="420" height="80" rx="6" fill="white" stroke="#bae6fd"/>
  <text x="60" y="255" font-family="Arial,sans-serif" font-size="11" fill="#0c4a6e">Photos en couleur et explications détaillées pour chaque appareil</text>
  <text x="60" y="280" font-family="Arial,sans-serif" font-size="11" fill="#0c4a6e">Mode d'emploi, entretien et précautions d'utilisation</text>
</svg>
