<svg xmlns="http://www.w3.org/2000/svg" viewBox="0 0 600 500">
  <defs>
    <linearGradient id="bg" x1="0%" y1="0%" x2="100%" y2="100%">
      <stop offset="0%" style="stop-color:#ecfdf5"/>
      <stop offset="100%" style="stop-color:#d1fae5"/>
    </linearGradient>
    <linearGradient id="book1" x1="0%" y1="0%" x2="0%" y2="100%">
      <stop offset="0%" style="stop-color:#059669"/>
      <stop offset="100%" style="stop-color:#047857"/>
    </linearGradient>
    <linearGradient id="book2" x1="0%" y1="0%" x2="0%" y2="100%">
      <stop offset="0%" style="stop-color:#f59e0b"/>
      <stop offset="100%" style="stop-color:#d97706"/>
    </linearGradient>
  </defs>
  <rect width="600" height="500" fill="url(#bg)" rx="20"/>
  <text x="300" y="50" text-anchor="middle" font-family="Arial,sans-serif" font-size="22" font-weight="bold" fill="#065f46">PACK PROMOTIONNEL</text>
  <rect x="120" y="80" width="160" height="220" rx="8" fill="url(#book1)" transform="rotate(-8 200 190)"/>
  <rect x="130" y="90" width="140" height="200" rx="4" fill="#10b981" transform="rotate(-8 200 190)"/>
  <text x="200" y="170" text-anchor="middle" font-family="Arial,sans-serif" font-size="14" font-weight="bold" fill="white" transform="rotate(-8 200 190)">ANALYSES</text>
  <text x="200" y="190" text-anchor="middle" font-family="Arial,sans-serif" font-size="14" font-weight="bold" fill="white" transform="rotate(-8 200 190)">MÉDICALES</text>
  <circle cx="200" cy="230" r="25" fill="white" opacity="0.3" transform="rotate(-8 200 190)"/>
  <rect x="300" y="80" width="160" height="220" rx="8" fill="url(#book2)" transform="rotate(8 380 190)"/>
  <rect x="310" y="90" width="140" height="200" rx="4" fill="#fbbf24" transform="rotate(8 380 190)"/>
  <text x="380" y="170" text-anchor="middle" font-family="Arial,sans-serif" font-size="13" font-weight="bold" fill="white" transform="rotate(8 380 190)">MATÉRIEL</text>
  <text x="380" y="190" text-anchor="middle" font-family="Arial,sans-serif" font-size="13" font-weight="bold" fill="white" transform="rotate(8 380 190)">LABORATOIRE</text>
  <text x="380" y="210" text-anchor="middle" font-family="Arial,sans-serif" font-size="11" fill="white" transform="rotate(8 380 190)">GRATUIT</text>
  <rect x="200" y="340" width="200" height="50" rx="25" fill="#059669"/>
  <text x="300" y="372" text-anchor="middle" font-family="Arial,sans-serif" font-size="24" font-weight="bold" fill="white">1600 DA</text>
  <text x="300" y="420" text-anchor="middle" font-family="Arial,sans-serif" font-size="16" fill="#6b7280" text-decoration="line-through">3200 DA</text>
  <rect x="380" y="60" width="80" height="30" rx="15" fill="#ef4444"/>
  <text x="420" y="80" text-anchor="middle" font-family="Arial,sans-serif" font-size="14" font-weight="bold" fill="white">-50%</text>
</svg>
